<svg width="305" height="305" viewBox="0 0 305 305" fill="none" xmlns="http://www.w3.org/2000/svg">
    <g clip-path="url(#clip0_1_91)" class="csf-wheel-main">
        <!-- <rect width="305" height="305" fill="white"/> -->
        <g filter="url(#filter0_i_1_91)">
            <path
                id="csf-w-rc" class="csf-wheel-elm" data-csf="rc"
                d="M143.12 5.29855C142.944 2.54272 140.567 0.44254 137.818 0.708376C110.735 3.32776 84.8126 13.1504 62.7636 29.197C40.7146 45.2436 23.397 66.89 12.5769 91.8553C11.4788 94.389 12.746 97.2974 15.3144 98.3119L69.8398 119.849C72.4082 120.864 75.299 119.596 76.4646 117.093C82.4554 104.228 91.6263 93.0663 103.145 84.6834C114.664 76.3004 128.104 71.0058 142.188 69.2612C144.929 68.9218 147.024 66.5607 146.848 63.8049L143.12 5.29855Z"
                fill="#37B34A" />
        </g>
        <g filter="url(#filter1_i_1_91)">
            <path
                id="csf-w-r" class="csf-wheel-elm" data-csf="r"
                d="M9.60573 115.928C6.93054 115.244 4.19831 116.856 3.60169 119.552C-2.27708 146.119 -0.946611 173.808 7.50027 199.737C15.9472 225.666 31.1818 248.825 51.5811 266.831C53.6514 268.659 56.8091 268.352 58.5676 266.223L95.9018 221.023C97.6603 218.894 97.3484 215.753 95.3279 213.871C84.9438 204.197 77.1629 192.026 72.7502 178.48C68.3374 164.935 67.4559 150.516 70.1493 136.582C70.6734 133.871 69.0753 131.149 66.4001 130.464L9.60573 115.928Z"
                fill="#EB3D44" />
        </g>
        <g filter="url(#filter2_i_1_91)">
            <path
                id="csf-w-d" class="csf-wheel-elm" data-csf="d"
                d="M75.853 278.522C74.418 280.881 75.1637 283.965 77.5687 285.322C101.267 298.691 128.141 305.492 155.406 304.972C182.671 304.453 209.266 296.633 232.438 282.37C234.789 280.922 235.417 277.813 233.893 275.51L201.543 226.619C200.019 224.316 196.924 223.698 194.534 225.082C182.253 232.194 168.342 236.088 154.098 236.36C139.855 236.631 125.805 233.27 113.262 226.631C110.822 225.339 107.752 226.074 106.317 228.433L75.853 278.522Z"
                fill="#F89D1C" />
        </g>
        <g filter="url(#filter3_i_1_91)">
            <path
                id="csf-w-p" class="csf-wheel-elm" data-csf="p"
                d="M246.251 266.373C248.006 268.505 251.163 268.816 253.237 266.992C273.665 249.018 288.936 225.883 297.424 199.968C305.912 174.053 307.287 146.366 301.451 119.79C300.858 117.092 298.129 115.476 295.452 116.156L238.635 130.601C235.959 131.282 234.356 134.001 234.876 136.713C237.547 150.651 236.643 165.069 232.208 178.607C227.774 192.146 219.974 204.305 209.574 213.962C207.551 215.841 207.234 218.981 208.989 221.113L246.251 266.373Z"
                fill="#835294" />
        </g>
        <g filter="url(#filter4_i_1_91)">
            <path
                id="csf-w-i" class="csf-wheel-elm" data-csf="i"
                d="M291.033 101.855C293.626 100.907 294.968 98.0319 293.935 95.4708C283.76 70.2356 267.004 48.1515 245.375 31.5436C223.746 14.9357 198.084 4.45026 171.077 1.13585C168.337 0.799478 165.906 2.83786 165.659 5.58828L160.429 63.9795C160.183 66.7299 162.216 69.144 164.947 69.5538C178.982 71.6597 192.282 77.2979 203.581 85.974C214.881 94.6502 223.762 106.044 229.42 119.059C230.521 121.591 233.378 122.932 235.972 121.984L291.033 101.855Z"
                fill="#4AA5DC" />
        </g>
        <path d="M173.856 26.586L172.197 39.5713L169.452 39.2206L171.111 26.2352L173.856 26.586Z"
            fill="white" />
        <path
            d="M184.485 41.9643L180.001 40.7669L183.379 28.1193L187.9 29.3267C189.172 29.6664 190.2 30.2121 190.983 30.9637C191.766 31.7112 192.28 32.6224 192.522 33.6971C192.768 34.773 192.716 35.9676 192.365 37.2809C192.013 38.5984 191.462 39.664 190.711 40.4779C189.964 41.2929 189.06 41.8298 187.998 42.0888C186.94 42.3489 185.769 42.3074 184.485 41.9643ZM183.287 39.1899L184.986 39.6435C185.776 39.8546 186.478 39.8922 187.093 39.7563C187.712 39.6174 188.237 39.2878 188.667 38.7675C189.102 38.2442 189.445 37.5112 189.697 36.5684C189.947 35.6338 190.013 34.8332 189.895 34.1667C189.782 33.5013 189.493 32.9566 189.029 32.5326C188.564 32.1086 187.936 31.791 187.146 31.5799L185.442 31.1246L183.287 39.1899Z"
            fill="white" />
        <path
            d="M197.779 46.1688L203.137 34.2248L211.185 37.8354L210.251 39.9175L204.728 37.4398L203.452 40.2858L208.56 42.5778L207.626 44.6598L202.518 42.3678L201.238 45.2197L206.784 47.7079L205.85 49.7899L197.779 46.1688Z"
            fill="white" />
        <path
            d="M229.06 48.4768L221.859 59.4095L219.863 58.0945L219.639 48.0809L219.559 48.0281L215.026 54.9091L212.715 53.3867L219.916 42.454L221.944 43.7901L222.135 53.7738L222.231 53.8371L226.759 46.9615L229.06 48.4768Z"
            fill="white" />
        <path
            d="M234.865 55.8382L236.417 54.1648L244.301 61.4745L242.75 63.1479L239.811 60.423L232.462 68.3495L230.456 66.4894L237.804 58.563L234.865 55.8382Z"
            fill="white" />
        <path d="M252.193 70.349L242.128 78.7194L240.359 76.5914L250.424 68.221L252.193 70.349Z"
            fill="white" />
        <path
            d="M246.985 84.9799L257.983 77.8805L262.684 85.1628L260.767 86.4003L257.567 81.4434L254.946 83.1351L257.834 87.6087L255.917 88.8462L253.029 84.3726L248.486 87.3053L246.985 84.9799Z"
            fill="white" />
        <path
            d="M266.748 92.3083L268.003 95.1429L264.057 100.155L264.109 100.272L270.473 100.718L271.728 103.553L262.057 102.614L257.825 104.489L256.712 101.976L260.944 100.101L266.748 92.3083Z"
            fill="white" />
        <path
            d="M46.8349 103.122L35.2471 97.0311L37.65 92.4593C38.11 91.5842 38.6591 90.9196 39.2973 90.4655C39.9337 90.0057 40.622 89.7633 41.3621 89.7383C42.1004 89.7075 42.8524 89.8933 43.6181 90.2958C44.3876 90.7003 44.9624 91.2142 45.3424 91.8376C45.7187 92.459 45.8884 93.162 45.8515 93.9465C45.8166 94.7274 45.5652 95.5629 45.0973 96.4531L43.4884 99.5141L41.5194 98.4792L42.9201 95.8142C43.166 95.3465 43.306 94.9243 43.3404 94.5475C43.3747 94.1708 43.3033 93.8396 43.1261 93.5539C42.9508 93.2644 42.6727 93.0196 42.2918 92.8193C41.907 92.6171 41.542 92.5239 41.1966 92.5398C40.8533 92.5519 40.5314 92.6788 40.2311 92.9205C39.929 93.1565 39.654 93.5102 39.4061 93.9817L38.5378 95.6339L48.1226 100.672L46.8349 103.122ZM44.8507 94.0921L51.6377 93.9838L50.2162 96.6884L43.4619 96.7344L44.8507 94.0921Z"
            fill="white" />
        <path
            d="M55.011 88.6526L44.4368 80.9351L49.6371 73.81L51.4803 75.1552L47.9118 80.0448L50.4314 81.8837L53.7324 77.3607L55.5756 78.706L52.2746 83.229L54.7994 85.0716L58.3831 80.1615L60.2263 81.5067L55.011 88.6526Z"
            fill="white" />
        <path
            d="M67.3187 61.3331L65.3385 63.3123C65.0463 63.0923 64.745 62.9385 64.4347 62.8511C64.1213 62.7606 63.8064 62.7319 63.49 62.765C63.1736 62.798 62.8633 62.8914 62.5589 63.045C62.2575 63.1956 61.9742 63.4034 61.709 63.6685C61.2298 64.1475 60.9313 64.6838 60.8137 65.2774C60.693 65.8679 60.7606 66.4872 61.0166 67.1351C61.2696 67.78 61.7169 68.4234 62.3585 69.0654C63.0183 69.7254 63.6705 70.1821 64.3153 70.4354C64.9631 70.6856 65.5793 70.7476 66.1639 70.6211C66.7485 70.4947 67.2744 70.1981 67.7415 69.7311C68.0037 69.469 68.2117 69.1919 68.3655 68.8996C68.5222 68.6044 68.6217 68.3031 68.664 67.9957C68.7032 67.6854 68.6837 67.3765 68.6055 67.0691C68.5302 66.7588 68.3917 66.4574 68.1899 66.1651L70.1791 64.1949C70.5526 64.6711 70.8342 65.209 71.0239 65.8087C71.2136 66.4023 71.2918 67.0261 71.2585 67.68C71.2252 68.3278 71.0623 68.9786 70.7698 69.6324C70.4774 70.2802 70.0343 70.9008 69.4406 71.4943C68.6147 72.3197 67.6895 72.8709 66.665 73.1479C65.6434 73.4218 64.5903 73.3929 63.5056 73.0612C62.4239 72.7265 61.38 72.0558 60.3738 71.0491C59.3646 70.0394 58.696 68.9907 58.3678 67.9028C58.0396 66.8149 58.0158 65.7603 58.2962 64.7389C58.5737 63.7144 59.1193 62.7955 59.9331 61.9822C60.4696 61.4459 61.0422 61.0242 61.651 60.717C62.2627 60.4068 62.891 60.2186 63.5359 60.1525C64.1777 60.0834 64.818 60.1453 65.4568 60.3383C66.0985 60.5283 66.7192 60.8599 67.3187 61.3331Z"
            fill="white" />
        <path
            d="M84.6945 50.4716C85.5205 51.6359 86.0026 52.783 86.1406 53.9129C86.2822 55.0403 86.127 56.0883 85.6751 57.0568C85.2242 58.0194 84.5278 58.8348 83.5859 59.503C82.6371 60.1761 81.6327 60.5648 80.5728 60.6689C79.5128 60.773 78.4742 60.572 77.4568 60.0659C76.4395 59.5599 75.519 58.7264 74.6954 57.5656C73.8694 56.4013 73.3856 55.2554 73.2441 54.128C73.1025 53.0006 73.2572 51.9556 73.7081 50.993C74.1566 50.027 74.8552 49.2074 75.804 48.5342C76.7459 47.866 77.7468 47.4798 78.8067 47.3757C79.8677 47.2657 80.9068 47.4637 81.9242 47.9698C82.945 48.4734 83.8685 49.3073 84.6945 50.4716ZM82.4059 52.0953C81.8708 51.3411 81.3066 50.7852 80.7133 50.4277C80.1235 50.0676 79.5303 49.898 78.9338 49.9189C78.3373 49.9398 77.7662 50.1438 77.2206 50.5309C76.6749 50.918 76.2937 51.3897 76.0769 51.9458C75.8602 52.5019 75.8225 53.119 75.964 53.7971C76.109 54.4728 76.449 55.1877 76.9841 55.9419C77.5191 56.6961 78.0816 57.2532 78.6714 57.6132C79.2647 57.9708 79.8596 58.1392 80.4561 58.1183C81.0526 58.0974 81.6237 57.8934 82.1694 57.5063C82.715 57.1192 83.0962 56.6475 83.313 56.0914C83.5298 55.5353 83.5657 54.9194 83.4207 54.2438C83.2792 53.5657 82.9409 52.8495 82.4059 52.0953Z"
            fill="white" />
        <path
            d="M91.4265 39.1388L98.5938 46.726L98.7032 46.6733L97.2427 36.3368L100.007 35.0052L101.623 48.7575L98.4096 50.3055L88.6566 40.4732L91.4265 39.1388Z"
            fill="white" />
        <path
            d="M111.986 44.4435L108.195 31.9134L116.638 29.3592L117.299 31.5433L111.505 33.2962L112.408 36.2819L117.768 34.6604L118.428 36.8446L113.069 38.466L113.974 41.4578L119.792 39.6976L120.453 41.8818L111.986 44.4435Z"
            fill="white" />
        <path
            d="M128.032 40.1172L126.112 27.1679L131.22 26.4103C132.198 26.2653 133.059 26.3164 133.802 26.5638C134.549 26.8063 135.151 27.2189 135.608 27.8017C136.068 28.3796 136.362 29.0964 136.489 29.9521C136.616 30.812 136.541 31.5793 136.261 32.2539C135.982 32.9244 135.514 33.4762 134.859 33.9094C134.208 34.3419 133.385 34.632 132.391 34.7795L128.97 35.2868L128.644 33.0864L131.622 32.6448C132.144 32.5673 132.568 32.4312 132.892 32.2366C133.217 32.0421 133.442 31.7889 133.568 31.4773C133.698 31.165 133.732 30.796 133.669 30.3703C133.605 29.9403 133.465 29.5906 133.248 29.3212C133.036 29.0511 132.744 28.8662 132.371 28.7663C132.002 28.6616 131.555 28.6483 131.028 28.7264L129.181 29.0002L130.77 39.7112L128.032 40.1172ZM134.151 33.1872L138.243 38.6029L135.221 39.0511L131.198 33.6251L134.151 33.1872Z"
            fill="white" />
        <path
            d="M106.951 268.702L102.787 266.654L108.565 254.907L112.764 256.973C113.945 257.554 114.847 258.289 115.468 259.179C116.091 260.065 116.417 261.059 116.445 262.16C116.477 263.263 116.193 264.425 115.593 265.645C114.991 266.868 114.242 267.806 113.347 268.458C112.455 269.112 111.464 269.462 110.372 269.509C109.284 269.558 108.144 269.289 106.951 268.702ZM106.317 265.747L107.894 266.523C108.628 266.885 109.31 267.058 109.939 267.045C110.573 267.029 111.152 266.808 111.675 266.382C112.204 265.953 112.684 265.301 113.115 264.426C113.542 263.558 113.763 262.785 113.777 262.109C113.796 261.434 113.619 260.843 113.246 260.337C112.873 259.831 112.319 259.397 111.585 259.036L110.002 258.257L106.317 265.747Z"
            fill="white" />
        <path
            d="M120.604 274.516L124.125 261.908L132.621 264.28L132.007 266.478L126.177 264.85L125.338 267.854L130.731 269.36L130.117 271.558L124.724 270.052L123.884 273.063L129.739 274.697L129.125 276.895L120.604 274.516Z"
            fill="white" />
        <path
            d="M138.095 267.774L138.306 265.502L149.012 266.495L148.801 268.767L144.81 268.397L143.812 279.16L141.088 278.907L142.086 268.144L138.095 267.774Z"
            fill="white" />
        <path
            d="M156.033 279.548L154.891 266.507L163.678 265.738L163.877 268.011L157.847 268.539L158.119 271.646L163.697 271.158L163.896 273.431L158.318 273.92L158.591 277.034L164.647 276.503L164.846 278.777L156.033 279.548Z"
            fill="white" />
        <path
            d="M182.224 266.1L179.528 266.853C179.381 266.518 179.194 266.236 178.966 266.007C178.738 265.775 178.477 265.595 178.186 265.469C177.894 265.342 177.577 265.271 177.237 265.256C176.9 265.239 176.552 265.281 176.19 265.382C175.538 265.564 175.015 265.885 174.621 266.345C174.226 266.8 173.981 267.373 173.886 268.063C173.79 268.749 173.864 269.529 174.108 270.403C174.359 271.302 174.703 272.02 175.141 272.557C175.582 273.093 176.089 273.449 176.66 273.626C177.232 273.803 177.836 273.802 178.472 273.625C178.829 273.525 179.146 273.386 179.423 273.206C179.705 273.026 179.939 272.812 180.127 272.565C180.314 272.314 180.448 272.035 180.531 271.729C180.617 271.422 180.645 271.091 180.612 270.738L183.312 269.997C183.404 270.595 183.385 271.202 183.257 271.818C183.13 272.428 182.893 273.01 182.543 273.563C182.196 274.111 181.734 274.599 181.159 275.025C180.586 275.446 179.896 275.769 179.087 275.995C177.962 276.309 176.886 276.335 175.857 276.074C174.833 275.811 173.929 275.269 173.147 274.448C172.369 273.625 171.788 272.529 171.405 271.158C171.021 269.783 170.953 268.541 171.201 267.432C171.449 266.323 171.946 265.392 172.691 264.64C173.436 263.884 174.362 263.351 175.47 263.041C176.201 262.837 176.907 262.751 177.588 262.782C178.273 262.812 178.913 262.956 179.507 263.215C180.101 263.47 180.628 263.838 181.09 264.319C181.556 264.8 181.934 265.393 182.224 266.1Z"
            fill="white" />
        <path
            d="M186.667 261.953L185.65 259.911L195.272 255.116L196.29 257.158L192.703 258.946L197.524 268.62L195.076 269.84L190.254 260.166L186.667 261.953Z"
            fill="white" />
        <path
            d="M242.866 242.396L233.491 233.26L237.096 229.561C237.788 228.85 238.515 228.376 239.274 228.141C240.03 227.902 240.776 227.885 241.511 228.089C242.246 228.288 242.924 228.69 243.547 229.297C244.17 229.904 244.588 230.573 244.802 231.306C245.017 232.038 245.008 232.789 244.777 233.557C244.549 234.322 244.084 235.065 243.382 235.785L241.085 238.143L239.496 236.595L241.481 234.558C241.853 234.176 242.094 233.798 242.203 233.423C242.313 233.042 242.31 232.676 242.194 232.325C242.078 231.968 241.866 231.639 241.557 231.339C241.246 231.035 240.913 230.833 240.56 230.732C240.206 230.625 239.843 230.634 239.471 230.76C239.095 230.882 238.721 231.136 238.346 231.52L237.043 232.857L244.798 240.414L242.866 242.396Z"
            fill="white" />
        <path
            d="M254.586 229.556L243.964 221.905L246.983 217.714C247.56 216.912 248.197 216.33 248.893 215.97C249.587 215.604 250.302 215.46 251.039 215.539C251.774 215.612 252.493 215.901 253.195 216.406C253.9 216.915 254.397 217.504 254.686 218.174C254.972 218.842 255.042 219.562 254.895 220.334C254.752 221.102 254.386 221.894 253.798 222.71L251.777 225.516L249.972 224.216L251.732 221.773C252.04 221.344 252.238 220.946 252.325 220.577C252.412 220.209 252.387 219.871 252.252 219.564C252.119 219.253 251.878 218.971 251.528 218.72C251.176 218.466 250.827 218.322 250.483 218.29C250.141 218.254 249.805 218.334 249.474 218.532C249.142 218.723 248.82 219.035 248.509 219.467L247.418 220.981L256.204 227.31L254.586 229.556ZM253.884 220.338L260.62 221.18L258.834 223.659L252.139 222.76L253.884 220.338Z"
            fill="white" />
        <path
            d="M263.877 201.442C265.154 202.079 266.12 202.864 266.774 203.795C267.43 204.723 267.787 205.72 267.845 206.787C267.901 207.849 267.672 208.896 267.156 209.93C266.636 210.97 265.934 211.787 265.048 212.378C264.162 212.969 263.152 213.282 262.016 213.315C260.88 213.348 259.675 213.047 258.402 212.412C257.125 211.774 256.158 210.992 255.501 210.064C254.845 209.136 254.489 208.142 254.433 207.08C254.373 206.017 254.603 204.965 255.122 203.924C255.638 202.891 256.339 202.078 257.225 201.487C258.108 200.89 259.118 200.574 260.254 200.541C261.392 200.504 262.599 200.804 263.877 201.442ZM262.623 203.953C261.796 203.54 261.036 203.315 260.345 203.28C259.655 203.24 259.052 203.37 258.535 203.67C258.019 203.969 257.612 204.419 257.313 205.017C257.014 205.616 256.9 206.211 256.971 206.804C257.042 207.397 257.3 207.959 257.744 208.49C258.191 209.018 258.828 209.488 259.655 209.901C260.482 210.314 261.241 210.54 261.931 210.579C262.623 210.615 263.227 210.483 263.743 210.184C264.259 209.884 264.667 209.435 264.965 208.836C265.264 208.238 265.378 207.642 265.307 207.049C265.236 206.457 264.978 205.897 264.531 205.369C264.087 204.838 263.451 204.366 262.623 203.953Z"
            fill="white" />
        <path
            d="M262.351 193.851L260.169 193.182L263.318 182.902L265.499 183.571L264.326 187.403L274.661 190.568L273.86 193.184L263.525 190.019L262.351 193.851Z"
            fill="white" />
        <path
            d="M277.619 178.779L264.665 176.892L265.936 168.163L268.194 168.492L267.322 174.482L270.409 174.932L271.215 169.391L273.474 169.72L272.667 175.261L275.76 175.711L276.636 169.696L278.894 170.024L277.619 178.779Z"
            fill="white" />
        <path
            d="M270.957 150.036L270.992 152.835C270.63 152.891 270.31 152.999 270.03 153.16C269.747 153.322 269.506 153.527 269.309 153.777C269.112 154.026 268.962 154.314 268.86 154.639C268.757 154.96 268.708 155.308 268.713 155.683C268.721 156.36 268.897 156.948 269.24 157.447C269.578 157.945 270.069 158.329 270.711 158.598C271.35 158.867 272.123 158.996 273.03 158.985C273.963 158.974 274.746 158.825 275.377 158.541C276.009 158.251 276.483 157.854 276.801 157.347C277.118 156.84 277.273 156.256 277.265 155.596C277.26 155.225 277.207 154.883 277.105 154.569C277.003 154.25 276.857 153.969 276.666 153.724C276.472 153.479 276.237 153.277 275.962 153.119C275.687 152.956 275.375 152.845 275.025 152.785L275.003 149.986C275.604 150.051 276.186 150.225 276.748 150.507C277.305 150.786 277.807 151.165 278.252 151.646C278.692 152.122 279.044 152.693 279.308 153.359C279.568 154.02 279.703 154.771 279.713 155.61C279.728 156.778 279.477 157.825 278.96 158.752C278.443 159.675 277.687 160.408 276.692 160.953C275.697 161.494 274.488 161.773 273.065 161.791C271.638 161.809 270.42 161.555 269.412 161.031C268.404 160.506 267.632 159.787 267.097 158.873C266.557 157.959 266.28 156.927 266.266 155.777C266.256 155.018 266.354 154.314 266.559 153.664C266.764 153.009 267.068 152.428 267.471 151.92C267.869 151.412 268.361 150.997 268.945 150.674C269.529 150.347 270.2 150.135 270.957 150.036Z"
            fill="white" />
        <path
            d="M268.145 144.442L265.898 144.836L264.039 134.247L266.287 133.852L266.98 137.8L277.626 135.931L278.099 138.626L267.452 140.494L268.145 144.442Z"
            fill="white" />
        <path
            d="M27.0541 135.06L40.0193 136.87L39.305 141.985C39.1683 142.965 38.8765 143.776 38.4296 144.419C37.9863 145.067 37.4206 145.528 36.7327 145.802C36.0483 146.081 35.2778 146.16 34.4211 146.041C33.5601 145.921 32.8453 145.631 32.2768 145.173C31.7125 144.716 31.3149 144.112 31.0841 143.361C30.8528 142.615 30.8066 141.743 30.9457 140.747L31.4239 137.322L33.6269 137.63L33.2106 140.612C33.1375 141.135 33.1486 141.58 33.2438 141.946C33.3389 142.312 33.5182 142.599 33.7816 142.808C34.0445 143.021 34.389 143.158 34.8153 143.217C35.2458 143.277 35.6208 143.242 35.9404 143.11C36.2594 142.982 36.5193 142.754 36.7202 142.425C36.9246 142.101 37.0637 141.675 37.1374 141.147L37.3955 139.298L26.6714 137.801L27.0541 135.06ZM31.9767 142.885L25.6266 145.284L26.0491 142.258L32.3894 139.929L31.9767 142.885Z"
            fill="white" />
        <path
            d="M25.2079 152.342L38.2984 152.239L38.3674 161.06L36.0855 161.078L36.0382 155.025L32.9189 155.049L32.9627 160.648L30.6808 160.666L30.637 155.067L27.5114 155.092L27.559 161.17L25.2771 161.188L25.2079 152.342Z"
            fill="white" />
        <path
            d="M36.2121 175.291C36.7137 175.161 37.0758 174.883 37.2983 174.456C37.5208 174.029 37.5809 173.487 37.4787 172.83C37.4092 172.383 37.2874 172.016 37.1133 171.729C36.9433 171.44 36.7361 171.231 36.4916 171.101C36.2477 170.975 35.9869 170.934 35.7089 170.977C35.4761 171.004 35.2815 171.084 35.1252 171.216C34.9696 171.353 34.8434 171.525 34.7466 171.735C34.6539 171.943 34.5806 172.179 34.5267 172.442C34.4769 172.704 34.4424 172.981 34.4231 173.273L34.3261 174.478C34.2875 175.062 34.1997 175.606 34.0626 176.111C33.9254 176.615 33.73 177.064 33.4764 177.457C33.2227 177.85 32.9022 178.174 32.5148 178.428C32.1281 178.687 31.6656 178.86 31.1273 178.948C30.335 179.067 29.6172 178.972 28.9739 178.662C28.3354 178.356 27.7979 177.853 27.3612 177.153C26.9295 176.457 26.6317 175.583 26.4679 174.53C26.3054 173.486 26.3238 172.551 26.5233 171.727C26.7234 170.907 27.1034 170.231 27.6633 169.699C28.2281 169.172 28.9741 168.825 29.9014 168.659L30.3132 171.305C29.8841 171.402 29.5413 171.583 29.2848 171.847C29.0332 172.115 28.8626 172.445 28.7729 172.839C28.688 173.236 28.6823 173.67 28.7557 174.142C28.8277 174.605 28.9577 174.997 29.1455 175.317C29.334 175.641 29.563 175.879 29.8325 176.031C30.102 176.184 30.3925 176.235 30.7041 176.187C30.9946 176.142 31.2254 176.017 31.3964 175.814C31.5681 175.615 31.6979 175.34 31.7858 174.99C31.8743 174.644 31.9387 174.227 31.979 173.737L32.1135 172.274C32.2091 171.142 32.4898 170.216 32.9558 169.497C33.4217 168.777 34.1329 168.345 35.0894 168.201C35.8719 168.075 36.5886 168.177 37.2394 168.507C37.8909 168.841 38.4385 169.353 38.8822 170.043C39.326 170.733 39.6213 171.55 39.768 172.493C39.9174 173.453 39.8836 174.316 39.6666 175.083C39.4502 175.854 39.0804 176.486 38.5574 176.977C38.0344 177.468 37.3886 177.78 36.62 177.912L36.2121 175.291Z"
            fill="white" />
        <path
            d="M29.1307 186.786L41.6333 182.906L43.1642 187.838C43.4585 188.787 43.5281 189.651 43.373 190.431C43.222 191.209 42.8813 191.873 42.351 192.421C41.826 192.972 41.1483 193.376 40.3181 193.634C39.4878 193.892 38.6997 193.94 37.9536 193.779C37.2076 193.618 36.552 193.252 35.987 192.683C35.4233 192.117 34.9924 191.354 34.6943 190.393L33.7185 187.249L35.8369 186.592L36.68 189.309C36.8379 189.817 37.0555 190.209 37.3328 190.485C37.6155 190.763 37.9387 190.935 38.3026 191C38.6719 191.069 39.062 191.039 39.4731 190.911C39.8882 190.783 40.2245 190.587 40.482 190.324C40.7449 190.064 40.91 189.74 40.9774 189.354C41.0488 188.966 41.0049 188.515 40.8458 188.002L40.2926 186.22L29.951 189.429L29.1307 186.786Z"
            fill="white" />
        <path
            d="M45.974 211.141C44.6951 211.775 43.4869 212.072 42.3492 212.032C41.2135 211.996 40.2026 211.68 39.3165 211.082C38.436 210.487 37.7393 209.672 37.2262 208.637C36.7093 207.595 36.4821 206.542 36.5446 205.479C36.6071 204.416 36.9677 203.421 37.6263 202.495C38.2848 201.569 39.2517 200.79 40.5268 200.158C41.8057 199.523 43.013 199.224 44.1487 199.26C45.2844 199.296 46.2925 199.612 47.1729 200.208C48.0571 200.801 48.7577 201.619 49.2746 202.661C49.7877 203.696 50.013 204.745 49.9505 205.808C49.8937 206.873 49.536 207.869 48.8774 208.795C48.2207 209.725 47.2529 210.507 45.974 211.141ZM44.7272 208.627C45.5557 208.216 46.1927 207.746 46.6385 207.215C47.0862 206.689 47.3462 206.129 47.4186 205.537C47.4911 204.945 47.3786 204.349 47.0814 203.749C46.7841 203.15 46.3777 202.7 45.8623 202.399C45.3468 202.098 44.7431 201.965 44.0512 201.999C43.3612 202.036 42.602 202.261 41.7736 202.671C40.9451 203.082 40.3071 203.551 39.8594 204.077C39.4137 204.608 39.1546 205.169 39.0821 205.762C39.0097 206.354 39.1221 206.95 39.4194 207.549C39.7167 208.149 40.123 208.599 40.6385 208.9C41.154 209.2 41.7567 209.332 42.4467 209.294C43.1386 209.26 43.8988 209.038 44.7272 208.627Z"
            fill="white" />
        <path
            d="M61.4867 222.424L50.8974 230.121L49.4918 228.187L52.8082 218.736L52.7518 218.659L46.0869 223.503L44.4597 221.264L55.049 213.567L56.477 215.532L53.1396 224.943L53.2072 225.036L59.8669 220.196L61.4867 222.424Z"
            fill="white" />
        <path
            d="M59.6908 239.858L56.3868 236.6L65.5794 227.279L68.9107 230.565C69.8482 231.49 70.4712 232.472 70.7797 233.513C71.0912 234.55 71.0864 235.596 70.7652 236.65C70.4471 237.706 69.8107 238.719 68.8562 239.687C67.8986 240.657 66.8921 241.311 65.8368 241.646C64.7845 241.985 63.733 242.005 62.6823 241.704C61.6346 241.407 60.6374 240.792 59.6908 239.858ZM60.0227 236.855L61.2742 238.089C61.8567 238.664 62.4484 239.044 63.0494 239.229C63.6563 239.415 64.2754 239.388 64.9065 239.149C65.5437 238.909 66.2049 238.442 66.8901 237.748C67.5694 237.059 68.0228 236.396 68.2505 235.758C68.4811 235.124 68.4995 234.508 68.3055 233.909C68.1115 233.311 67.7233 232.725 67.1408 232.15L65.8847 230.911L60.0227 236.855Z"
            fill="white" />
        <circle id="csf-w-center"  data-csf="toggle" class="csf-wheel-elm" cx="152.5" cy="151.5" r="67.5" fill="black" fill-opacity="0.26" />
    </g>
    <defs>
        <filter id="filter0_i_1_91" x="12.1801" y="0.685669" width="134.678" height="123.514"
            filterUnits="userSpaceOnUse" color-interpolation-filters="sRGB">
            <feFlood flood-opacity="0" result="BackgroundImageFix" />
            <feBlend mode="normal" in="SourceGraphic" in2="BackgroundImageFix" result="shape" />
            <feColorMatrix in="SourceAlpha" type="matrix"
                values="0 0 0 0 0 0 0 0 0 0 0 0 0 0 0 0 0 0 127 0" result="hardAlpha" />
            <feOffset dy="4" />
            <feGaussianBlur stdDeviation="2" />
            <feComposite in2="hardAlpha" operator="arithmetic" k2="-1" k3="1" />
            <feColorMatrix type="matrix" values="0 0 0 0 0 0 0 0 0 0 0 0 0 0 0 0 0 0 0.25 0" />
            <feBlend mode="normal" in2="shape" result="effect1_innerShadow_1_91" />
        </filter>
        <filter id="filter1_i_1_91" x="-1.52588e-05" y="115.771" width="97.0514" height="156.26"
            filterUnits="userSpaceOnUse" color-interpolation-filters="sRGB">
            <feFlood flood-opacity="0" result="BackgroundImageFix" />
            <feBlend mode="normal" in="SourceGraphic" in2="BackgroundImageFix" result="shape" />
            <feColorMatrix in="SourceAlpha" type="matrix"
                values="0 0 0 0 0 0 0 0 0 0 0 0 0 0 0 0 0 0 127 0" result="hardAlpha" />
            <feOffset dy="4" />
            <feGaussianBlur stdDeviation="2" />
            <feComposite in2="hardAlpha" operator="arithmetic" k2="-1" k3="1" />
            <feColorMatrix type="matrix" values="0 0 0 0 0 0 0 0 0 0 0 0 0 0 0 0 0 0 0.25 0" />
            <feBlend mode="normal" in2="shape" result="effect1_innerShadow_1_91" />
        </filter>
        <filter id="filter2_i_1_91" x="75.125" y="224.351" width="159.598" height="84.6492"
            filterUnits="userSpaceOnUse" color-interpolation-filters="sRGB">
            <feFlood flood-opacity="0" result="BackgroundImageFix" />
            <feBlend mode="normal" in="SourceGraphic" in2="BackgroundImageFix" result="shape" />
            <feColorMatrix in="SourceAlpha" type="matrix"
                values="0 0 0 0 0 0 0 0 0 0 0 0 0 0 0 0 0 0 127 0" result="hardAlpha" />
            <feOffset dy="4" />
            <feGaussianBlur stdDeviation="2" />
            <feComposite in2="hardAlpha" operator="arithmetic" k2="-1" k3="1" />
            <feColorMatrix type="matrix" values="0 0 0 0 0 0 0 0 0 0 0 0 0 0 0 0 0 0 0.25 0" />
            <feBlend mode="normal" in2="shape" result="effect1_innerShadow_1_91" />
        </filter>
        <filter id="filter3_i_1_91" x="207.844" y="116.001" width="97.1555" height="156.185"
            filterUnits="userSpaceOnUse" color-interpolation-filters="sRGB">
            <feFlood flood-opacity="0" result="BackgroundImageFix" />
            <feBlend mode="normal" in="SourceGraphic" in2="BackgroundImageFix" result="shape" />
            <feColorMatrix in="SourceAlpha" type="matrix"
                values="0 0 0 0 0 0 0 0 0 0 0 0 0 0 0 0 0 0 127 0" result="hardAlpha" />
            <feOffset dy="4" />
            <feGaussianBlur stdDeviation="2" />
            <feComposite in2="hardAlpha" operator="arithmetic" k2="-1" k3="1" />
            <feColorMatrix type="matrix" values="0 0 0 0 0 0 0 0 0 0 0 0 0 0 0 0 0 0 0.25 0" />
            <feBlend mode="normal" in2="shape" result="effect1_innerShadow_1_91" />
        </filter>
        <filter id="filter4_i_1_91" x="160.409" y="1.0995" width="133.876" height="125.19"
            filterUnits="userSpaceOnUse" color-interpolation-filters="sRGB">
            <feFlood flood-opacity="0" result="BackgroundImageFix" />
            <feBlend mode="normal" in="SourceGraphic" in2="BackgroundImageFix" result="shape" />
            <feColorMatrix in="SourceAlpha" type="matrix"
                values="0 0 0 0 0 0 0 0 0 0 0 0 0 0 0 0 0 0 127 0" result="hardAlpha" />
            <feOffset dy="4" />
            <feGaussianBlur stdDeviation="2" />
            <feComposite in2="hardAlpha" operator="arithmetic" k2="-1" k3="1" />
            <feColorMatrix type="matrix" values="0 0 0 0 0 0 0 0 0 0 0 0 0 0 0 0 0 0 0.25 0" />
            <feBlend mode="normal" in2="shape" result="effect1_innerShadow_1_91" />
        </filter>
        <clipPath id="clip0_1_91">
            <rect width="305" height="305" fill="white" />
        </clipPath>
    </defs>
</svg>