<svg width="550" height="550" viewBox="0 0 550 550" fill="none" xmlns="http://www.w3.org/2000/svg">
    <path d="M217.5 274.004L13 74.0035L274 224.004L536 74.0035L342 274.004L530 477.504L274 322.004L23.5 477.504L217.5 274.004Z" fill="black"/>
    <path d="M381.5 451.504C262.7 527.504 162 471.837 126.5 434.504L154.5 419.004C246.9 496.604 347.667 447.67 386.5 413.504L390 426.004L381.5 451.504Z" fill="black"/>
    <path d="M457.5 375.504L435 352.004C461.8 285.604 448.167 226.337 438 205.004L459.5 179.504C464.7 188.304 470 200.17 472 205.004L507.5 213.504L474 221.004C478.4 240.604 480.833 261.837 481.5 270.004L521 280.504L480.5 285.504C480.9 303.504 474 330.004 470.5 341.004L503 354.504L467.5 355.504L457.5 375.504Z" fill="black"/>
    <path d="M418 122.504L390.5 139.004C285.7 54.2036 190.5 101.337 156 135.504L128.5 117.004C246.5 13.0036 370.667 77.3369 418 122.504Z" fill="black"/>
    <path d="M109.5 191.004L87 168.004C83 173.604 74.6667 195.67 71 206.004L34 207.504L67.5 221.004C61.5 236.204 59.3333 259.004 59 268.504L31.5 276.004L59 283.504C58.6 300.704 61.8333 319.004 63.5 326.004L29.5 339.004L70 342.004C73.2 357.204 83.6667 373.67 88.5 380.004L109.5 357.504C74.3 293.904 94.8333 220.004 109.5 191.004Z" fill="black"/>
    </svg>
    